<mxfile host="app.diagrams.net" modified="2023-06-19T08:30:36.157Z" agent="Mozilla/5.0 (Windows NT 10.0; Win64; x64) AppleWebKit/537.36 (KHTML, like Gecko) Chrome/114.0.0.0 Safari/537.36" version="21.4.0" etag="soCXmecGxpYIjkmxEq_P" type="github">
  <diagram name="페이지-1" id="AiYfpeXdoTfthhrxr5vb">
    <mxGraphModel>
      <root>
        <mxCell id="0" />
        <mxCell id="1" parent="0" />
      </root>
    </mxGraphModel>
  </diagram>
</mxfile>
